<svg width="136" height="45" viewBox="0 0 136 45" fill="none" xmlns="http://www.w3.org/2000/svg">
<path fill-rule="evenodd" clip-rule="evenodd" d="M8.38641 2.26181C10.5753 1.10497 13.0703 0.45 15.7186 0.45C24.3997 0.45 31.4371 7.48001 31.4371 16.1769V16.2231C31.4371 24.9088 24.4016 31.95 15.7186 31.95C13.3078 31.95 11.0238 31.4079 8.98203 30.4384V40.5C8.98203 42.9853 6.96629 45 4.49102 45C2.0107 45 0 42.979 0 40.5V4.50003C0 2.01473 2.01574 0 4.49102 0C6.15704 0 7.61118 0.911818 8.38641 2.26181ZM9.67296 16.1823V16.2177C9.67296 19.5538 12.3797 22.2577 15.7186 22.2577C19.0507 22.2577 21.7642 19.5535 21.7642 16.2177V16.1823C21.7642 12.8462 19.0575 10.1423 15.7186 10.1423C12.3865 10.1423 9.67296 12.8465 9.67296 16.1823Z" fill="#E4017E"/>
<path d="M40.5 9.92808C43.1543 9.92808 45.5 7.4589 45.5 4.86986C45.5 2.21918 43.1543 0 40.5 0C37.8456 0 35.5 2.21918 35.5 4.86986C35.5 7.4589 37.8456 9.92808 40.5 9.92808ZM40.5 12.3904C37.8456 12.3904 35.5617 14.6096 35.5617 17.3836V40.0068C35.5617 42.7808 37.8456 45 40.5 45C43.1543 45 45.4382 42.7808 45.4382 40.0068V17.3836C45.4382 14.6096 43.1543 12.3904 40.5 12.3904Z" fill="#01A29C"/>
<path d="M77.9508 38.0445L69.7426 28.75L77.9508 19.4555C78.5679 18.7169 78.9382 17.8551 78.9382 16.8703C78.9382 14.4697 76.7165 12.5 74.4947 12.5C73.0135 12.5 71.9027 13.1771 70.9769 14.285L64.2499 22.2254L57.523 14.285C56.7207 13.1771 55.4863 12.5 54.0669 12.5C51.7834 12.5 49.5617 14.4697 49.5617 16.8703C49.5617 17.8551 49.9319 18.7169 50.5491 19.4555L58.7573 28.75L50.5491 38.0445C49.8702 38.7831 49.4999 39.7064 49.4999 40.6913C49.4999 43.0303 51.7217 45 54.0052 45C55.4863 45 56.5355 44.2614 57.4612 43.215L64.2499 35.2746L71.0386 43.215C71.9644 44.2614 73.0753 45 74.4947 45C76.8399 45 78.9999 43.0303 78.9999 40.6913C78.9999 39.7064 78.6914 38.7831 77.9508 38.0445Z" fill="#EA4F1B"/>
<path d="M99.4625 12.5C92.4336 12.5 83.0001 17.7637 83.0001 28.903C83.0001 40.0424 91.817 45 100.202 45C104.087 45 106.923 44.0207 109.019 42.7354C110.869 41.3277 111.362 39.92 111.362 38.7571C111.362 36.9209 110.129 35.5132 108.094 35.5132C106.861 35.5132 105.813 36.064 104.518 36.4925C102.792 36.9209 102.484 37.1657 100.634 37.1657C96.6263 37.1657 94.0983 35.3296 93.2351 32.2081L108.958 32.3917C112.904 32.3917 115 31.1064 115 27.2505C115 18.0697 106.491 12.5 99.4625 12.5ZM99.4625 20.9463C102.299 20.9463 104.703 22.2316 105.32 25.7203H93.2351C93.79 22.2316 96.5646 20.9463 99.4625 20.9463Z" fill="#009EE3"/>
<path fill-rule="evenodd" clip-rule="evenodd" d="M132.023 12.5063C124.924 12.7215 119.211 18.3879 119.006 25.4217H119V41.038C119 43.228 120.77 45 122.953 45C125.132 45 126.907 43.2262 126.907 41.038V25.8133H126.921C126.912 25.6839 126.907 25.5533 126.907 25.4217C126.907 22.3941 129.385 19.9398 132.442 19.9398V19.9347C134.424 19.8329 136 18.2086 136 16.2199C136 14.2311 134.424 12.6069 132.442 12.5051V12.5C132.399 12.5 132.356 12.5002 132.313 12.5006C132.29 12.5002 132.267 12.5 132.244 12.5C132.17 12.5 132.096 12.5021 132.023 12.5063Z" fill="#3AAB35"/>
</svg>
